<?xml version="1.0" encoding="utf-8"?>
<!-- Generator: Adobe Illustrator 17.0.0, SVG Export Plug-In . SVG Version: 6.00 Build 0)  -->
<!DOCTYPE svg PUBLIC "-//W3C//DTD SVG 1.1//EN" "http://www.w3.org/Graphics/SVG/1.1/DTD/svg11.dtd">
<svg version="1.1" id="Layer_1" xmlns:svg="http://www.w3.org/2000/svg"
	 xmlns="http://www.w3.org/2000/svg" xmlns:xlink="http://www.w3.org/1999/xlink" x="0px" y="0px" width="21.6px" height="28.8px"
	 viewBox="0 0 21.6 28.8" enable-background="new 0 0 21.6 28.8" xml:space="preserve">
<desc>Fritzing breadboard generated by brd2svg</desc>
<g id="breadboard">
	<g id="icon">
		<path fill="#1F7A34" d="M0,0v12.24c1.193,0,2.16,0.967,2.16,2.16S1.193,16.56,0,16.56V28.8h21.6V0H0z"/>
		<g transform="translate(90,125.193)">
			<g transform="matrix(0.5, 0, 0, 0.5, 30, 37.4035)">
				<rect x="-221.872" y="-294.408" fill="#8C8C8C" width="1.559" height="3.402"/>
				<rect x="-219.18" y="-294.408" fill="#8C8C8C" width="1.559" height="3.402"/>
				<rect x="-216.487" y="-294.408" fill="#8C8C8C" width="1.559" height="3.402"/>
				<rect x="-216.487" y="-301.779" fill="#8C8C8C" width="1.559" height="3.402"/>
				<rect x="-221.872" y="-301.779" fill="#8C8C8C" width="1.559" height="3.402"/>
				<rect x="-219.18" y="-301.779" fill="#8C8C8C" width="1.559" height="3.402"/>
				<rect x="-222.72" y="-298.978" fill="#303030" width="8.64" height="5.17"/>
				<polygon fill="#1F1F1F" points="-222.72,-298.978 -214.08,-298.978 -214.8,-298.258 -222,-298.258 				"/>
				<polygon fill="#1F1F1F" points="-222.72,-293.808 -214.08,-293.808 -214.8,-294.528 -222,-294.528 				"/>
				<polygon points="-222.72,-298.978 -222.72,-293.808 -222,-294.528 -222,-298.258 				"/>
				<polygon fill="#3D3D3D" points="-214.08,-298.978 -214.08,-293.808 -214.8,-294.528 -214.8,-298.258 				"/>
				<circle fill="#1F1F1F" cx="-220.56" cy="-295.968" r="0.72"/>
			</g>
		</g>
		<g transform="translate(63.5,326.05)">
			<g transform="rotate(-90)">
				<text transform="matrix(1 0 0 1 302.5745 -58.9281)" fill="#FFFFFF" font-family="'OCRA'" font-size="3.24">1</text>
			</g>
		</g>
		<g transform="translate(63.5,73.95)">
			<g transform="rotate(-90)">
				<text transform="matrix(1 0 0 1 66.3091 -58.9281)" fill="#FFFFFF" font-family="'OCRA'" font-size="3.24">6</text>
			</g>
		</g>
		<g transform="translate(163.5,326.05)">
			<g transform="rotate(-90)">
				<text transform="matrix(1 0 0 1 302.5745 -151.7278)" fill="#FFFFFF" font-family="'OCRA'" font-size="3.24">2</text>
			</g>
		</g>
		<g transform="translate(163.5,73.95)">
			<g transform="rotate(-90)">
				<text transform="matrix(1 0 0 1 66.3091 -151.7278)" fill="#FFFFFF" font-family="'OCRA'" font-size="3.24">5</text>
			</g>
		</g>
		<g transform="translate(263.5,326.05)">
			<g transform="rotate(-90)">
				<text transform="matrix(1 0 0 1 302.5745 -244.5284)" fill="#FFFFFF" font-family="'OCRA'" font-size="3.24">3</text>
			</g>
		</g>
		<g transform="translate(263.5,73.95)">
			<g transform="rotate(-90)">
				<text transform="matrix(1 0 0 1 66.3091 -244.5284)" fill="#FFFFFF" font-family="'OCRA'" font-size="3.24">4</text>
			</g>
		</g>
	</g>
	<g transform="translate(34.035,334.05)">
		<rect id="connector0pin" x="-31.585" y="-309.998" fill="#8D8C8C" width="2.299" height="2.297"/>
		<rect x="-31.024" y="-309.441" fill="#8C8663" width="1.184" height="1.182"/>
		<polygon fill="#B8AF82" points="-31.584,-307.702 -31.024,-308.261 -31.024,-309.496 -31.584,-309.998 		"/>
		<polygon fill="#80795B" points="-29.842,-309.439 -31.016,-309.439 -31.584,-309.998 -29.286,-309.998 		"/>
		<polygon fill="#5E5B43" points="-29.842,-308.261 -29.842,-309.439 -29.286,-309.998 -29.286,-307.702 		"/>
		<polygon fill="#9A916C" points="-31.584,-307.702 -31.018,-308.261 -29.842,-308.261 -29.286,-307.702 		"/>
	</g>
	<g transform="translate(34.035,34.05)">
		<rect id="connector5pin" x="-31.585" y="-31.598" fill="#8D8C8C" width="2.299" height="2.297"/>
		<rect x="-31.024" y="-31.041" fill="#8C8663" width="1.184" height="1.182"/>
		<polygon fill="#B8AF82" points="-31.584,-29.302 -31.024,-29.861 -31.024,-31.096 -31.584,-31.598 		"/>
		<polygon fill="#80795B" points="-29.842,-31.039 -31.016,-31.039 -31.584,-31.598 -29.286,-31.598 		"/>
		<polygon fill="#5E5B43" points="-29.842,-29.861 -29.842,-31.039 -29.286,-31.598 -29.286,-29.302 		"/>
		<polygon fill="#9A916C" points="-31.584,-29.302 -31.018,-29.861 -29.842,-29.861 -29.286,-29.302 		"/>
	</g>
	<g transform="translate(134.035,334.05)">
		<rect id="connector1pin" x="-124.384" y="-309.998" fill="#8D8C8C" width="2.299" height="2.297"/>
		<rect x="-123.824" y="-309.441" fill="#8C8663" width="1.184" height="1.182"/>
		<polygon fill="#B8AF82" points="-124.384,-307.702 -123.824,-308.261 -123.824,-309.496 -124.384,-309.998 		"/>
		<polygon fill="#80795B" points="-122.642,-309.439 -123.816,-309.439 -124.384,-309.998 -122.086,-309.998 		"/>
		<polygon fill="#5E5B43" points="-122.642,-308.261 -122.642,-309.439 -122.086,-309.998 -122.086,-307.702 		"/>
		<polygon fill="#9A916C" points="-124.384,-307.702 -123.818,-308.261 -122.642,-308.261 -122.086,-307.702 		"/>
	</g>
	<g transform="translate(134.035,34.05)">
		<rect id="connector4pin" x="-124.384" y="-31.598" fill="#8D8C8C" width="2.299" height="2.297"/>
		<rect x="-123.824" y="-31.041" fill="#8C8663" width="1.184" height="1.182"/>
		<polygon fill="#B8AF82" points="-124.384,-29.302 -123.824,-29.861 -123.824,-31.096 -124.384,-31.598 		"/>
		<polygon fill="#80795B" points="-122.642,-31.039 -123.816,-31.039 -124.384,-31.598 -122.086,-31.598 		"/>
		<polygon fill="#5E5B43" points="-122.642,-29.861 -122.642,-31.039 -122.086,-31.598 -122.086,-29.302 		"/>
		<polygon fill="#9A916C" points="-124.384,-29.302 -123.818,-29.861 -122.642,-29.861 -122.086,-29.302 		"/>
	</g>
	<g transform="translate(234.035,334.05)">
		<rect id="connector2pin" x="-217.184" y="-309.998" fill="#8D8C8C" width="2.299" height="2.297"/>
		<rect x="-216.624" y="-309.441" fill="#8C8663" width="1.184" height="1.182"/>
		<polygon fill="#B8AF82" points="-217.184,-307.702 -216.624,-308.261 -216.624,-309.496 -217.184,-309.998 		"/>
		<polygon fill="#80795B" points="-215.442,-309.439 -216.616,-309.439 -217.184,-309.998 -214.886,-309.998 		"/>
		<polygon fill="#5E5B43" points="-215.442,-308.261 -215.442,-309.439 -214.886,-309.998 -214.886,-307.702 		"/>
		<polygon fill="#9A916C" points="-217.184,-307.702 -216.618,-308.261 -215.442,-308.261 -214.886,-307.702 		"/>
	</g>
	<g transform="translate(234.035,34.05)">
		<rect id="connector3pin" x="-217.184" y="-31.598" fill="#8D8C8C" width="2.299" height="2.297"/>
		<rect x="-216.624" y="-31.041" fill="#8C8663" width="1.184" height="1.182"/>
		<polygon fill="#B8AF82" points="-217.184,-29.302 -216.624,-29.861 -216.624,-31.096 -217.184,-31.598 		"/>
		<polygon fill="#80795B" points="-215.442,-31.039 -216.616,-31.039 -217.184,-31.598 -214.886,-31.598 		"/>
		<polygon fill="#5E5B43" points="-215.442,-29.861 -215.442,-31.039 -214.886,-31.598 -214.886,-29.302 		"/>
		<polygon fill="#9A916C" points="-217.184,-29.302 -216.618,-29.861 -215.442,-29.861 -214.886,-29.302 		"/>
	</g>
</g>
</svg>
