<?xml version="1.0" encoding="utf-8"?>
<!-- Generator: Adobe Illustrator 17.0.0, SVG Export Plug-In . SVG Version: 6.00 Build 0)  -->
<!DOCTYPE svg PUBLIC "-//W3C//DTD SVG 1.1//EN" "http://www.w3.org/Graphics/SVG/1.1/DTD/svg11.dtd">
<svg version="1.1" id="Layer_1" xmlns:svg="http://www.w3.org/2000/svg"
	 xmlns="http://www.w3.org/2000/svg" xmlns:xlink="http://www.w3.org/1999/xlink" x="0px" y="0px" width="72.7px" height="29.52px"
	 viewBox="0 0 72.7 29.52" enable-background="new 0 0 72.7 29.52" xml:space="preserve">
<g id="schematic">
	<rect x="14.75" y="0.36" fill="#FFFFFF" width="43.2" height="28.8"/>
	<text id="label" transform="matrix(1 0 0 1 25.3129 13.0441)" enable-background="new    "><tspan x="0" y="0" font-family="'DroidSans'" font-size="3.5">ESD-Prot.</tspan><tspan x="0" y="4.2" font-family="'DroidSans'" font-size="3.5">TPD2S017DBVR</tspan></text>
	<line fill="none" stroke="#000000" stroke-width="0.3175" stroke-linecap="round" x1="14.75" y1="29.16" x2="57.95" y2="29.16"/>
	<line fill="none" stroke="#000000" stroke-width="0.3175" stroke-linecap="round" x1="57.95" y1="29.16" x2="57.95" y2="0.36"/>
	<line fill="none" stroke="#000000" stroke-width="0.3175" stroke-linecap="round" x1="57.95" y1="0.36" x2="14.75" y2="0.36"/>
	<line fill="none" stroke="#000000" stroke-width="0.3175" stroke-linecap="round" x1="14.75" y1="0.36" x2="14.75" y2="29.16"/>
	
		<line id="connector2pin" fill="none" stroke="#787878" stroke-width="0.2469" stroke-linecap="round" x1="0.35" y1="7.56" x2="14.75" y2="7.56"/>
	<rect id="connector2terminal" x="0.35" y="7.56" fill="none" width="0" height="0"/>
	<text transform="matrix(1 0 0 1 6.8611 6.51)" fill="#8C8C8C" font-family="'DroidSans'" font-size="2.5">3</text>
	<text transform="matrix(1 0 0 1 16.849 8.2585)" fill="#787878" font-family="'DroidSans'" font-size="3.5">Ch1_In</text>
	
		<line id="connector1pin" fill="none" stroke="#787878" stroke-width="0.2469" stroke-linecap="round" x1="0.35" y1="14.76" x2="14.75" y2="14.76"/>
	<rect id="connector1terminal" x="0.35" y="14.76" fill="none" width="0" height="0"/>
	<text transform="matrix(1 0 0 1 6.8611 13.7108)" fill="#8C8C8C" font-family="'DroidSans'" font-size="2.5">2</text>
	<text transform="matrix(1 0 0 1 16.849 15.4613)" fill="#787878" font-family="'DroidSans'" font-size="3.5">GND</text>
	
		<line id="connector0pin" fill="none" stroke="#787878" stroke-width="0.2469" stroke-linecap="round" x1="0.35" y1="21.96" x2="14.75" y2="21.96"/>
	<rect id="connector0terminal" x="0.35" y="21.96" fill="none" width="0" height="0"/>
	<text transform="matrix(1 0 0 1 6.8611 20.9106)" fill="#8C8C8C" font-family="'DroidSans'" font-size="2.5">1</text>
	<text transform="matrix(1 0 0 1 16.849 22.6591)" fill="#787878" font-family="'DroidSans'" font-size="3.5">Ch1_Out</text>
	
		<line id="connector3pin" fill="none" stroke="#787878" stroke-width="0.2469" stroke-linecap="round" x1="72.35" y1="7.56" x2="57.95" y2="7.56"/>
	<rect id="connector3terminal" x="72.35" y="7.56" fill="none" width="0" height="0"/>
	<text transform="matrix(1 0 0 1 64.4608 6.51)" fill="#8C8C8C" font-family="'DroidSans'" font-size="2.5">4</text>
	<text transform="matrix(1 0 0 1 46.4227 8.2585)" fill="#787878" font-family="'DroidSans'" font-size="3.5">Ch2_in</text>
	
		<line id="connector4pin" fill="none" stroke="#787878" stroke-width="0.2469" stroke-linecap="round" x1="72.35" y1="14.76" x2="57.95" y2="14.76"/>
	<rect id="connector4terminal" x="72.35" y="14.76" fill="none" width="0" height="0"/>
	<text transform="matrix(1 0 0 1 64.4608 13.7108)" fill="#8C8C8C" font-family="'DroidSans'" font-size="2.5">5</text>
	<text transform="matrix(1 0 0 1 51.8035 15.4613)" fill="#787878" font-family="'DroidSans'" font-size="3.5">Vcc</text>
	
		<line id="connector5pin" fill="none" stroke="#787878" stroke-width="0.2469" stroke-linecap="round" x1="72.35" y1="21.96" x2="57.95" y2="21.96"/>
	<rect id="connector5terminal" x="72.35" y="21.96" fill="none" width="0" height="0"/>
	<text transform="matrix(1 0 0 1 64.4608 20.9106)" fill="#8C8C8C" font-family="'DroidSans'" font-size="2.5">6</text>
	<text transform="matrix(1 0 0 1 43.5443 22.6591)" fill="#787878" font-family="'DroidSans'" font-size="3.5">Ch2_Out</text>
</g>
</svg>
