<?xml version="1.0" encoding="utf-8"?>
<!-- Generator: Adobe Illustrator 17.0.0, SVG Export Plug-In . SVG Version: 6.00 Build 0)  -->
<!DOCTYPE svg PUBLIC "-//W3C//DTD SVG 1.1//EN" "http://www.w3.org/Graphics/SVG/1.1/DTD/svg11.dtd">
<svg version="1.1" id="Layer_1" xmlns:svg="http://www.w3.org/2000/svg"
	 xmlns="http://www.w3.org/2000/svg" xmlns:xlink="http://www.w3.org/1999/xlink" x="0px" y="0px" width="43.9px" height="29.727px"
	 viewBox="0 0 43.9 29.727" enable-background="new 0 0 43.9 29.727" xml:space="preserve">
<g id="schematic">
	<rect x="7.551" y="0.576" fill="#FFFFFF" width="28.801" height="21.6"/>
	<text id="label" transform="matrix(1 0 0 1 11.2874 11.7981)" font-family="'DroidSans'" font-size="4.1102">TLV1117-33</text>
	<line fill="none" stroke="#000000" stroke-width="0.9" stroke-linecap="round" x1="7.551" y1="22.176" x2="36.35" y2="22.176"/>
	<line fill="none" stroke="#000000" stroke-width="0.9" stroke-linecap="round" x1="36.35" y1="22.176" x2="36.35" y2="0.576"/>
	<line fill="none" stroke="#000000" stroke-width="0.9" stroke-linecap="round" x1="36.35" y1="0.576" x2="7.551" y2="0.576"/>
	<line fill="none" stroke="#000000" stroke-width="0.9" stroke-linecap="round" x1="7.551" y1="0.576" x2="7.551" y2="22.176"/>
	
		<line id="connector2pin" fill="none" stroke="#787878" stroke-width="0.75" stroke-linecap="round" x1="0.35" y1="7.776" x2="7.551" y2="7.776"/>
	<path id="connector2terminal" fill="none" d="M0.35,7.776L0.35,7.776L0.35,7.776z"/>
	<text transform="matrix(1 0 0 1 3.2625 6.7249)" fill="#8C8C8C" font-family="'DroidSans'" font-size="2.5">3</text>
	<text transform="matrix(1 0 0 1 8.9836 8.4758)" fill="#787878" font-family="'DroidSans'" font-size="3.5">IN</text>
	
		<line id="connector0pin" fill="none" stroke="#787878" stroke-width="0.75" stroke-linecap="round" x1="21.95" y1="29.376" x2="21.95" y2="22.176"/>
	<rect id="connector0terminal" x="21.95" y="29.376" fill="none" width="0" height="0.001"/>
	<g transform="translate(7.37306,9.0932)">
		<g transform="rotate(270)">
			<text transform="matrix(1 0 0 1 -17.3738 13.5261)" fill="#8C8C8C" font-family="'DroidSans'" font-size="2.5">1</text>
		</g>
	</g>
	<g transform="translate(7.99042,7.08237)">
		<g transform="rotate(270)">
			<text transform="matrix(1 0 0 1 -12.994 14.6588)" fill="#787878" font-family="'DroidSans'" font-size="3.5">GND</text>
		</g>
	</g>
	
		<line id="connector1pin" fill="none" stroke="#787878" stroke-width="0.75" stroke-linecap="round" x1="43.551" y1="7.776" x2="36.35" y2="7.776"/>
	<path id="connector1terminal" fill="none" d="M43.551,7.776L43.551,7.776L43.551,7.776z"/>
	<text transform="matrix(1 0 0 1 39.2625 6.7249)" fill="#8C8C8C" font-family="'DroidSans'" font-size="2.5">2</text>
	<text transform="matrix(1 0 0 1 28.1433 8.4758)" fill="#787878" font-family="'DroidSans'" font-size="3.5">OUT</text>
	
		<line id="connector3pin" fill="none" stroke="#787878" stroke-width="0.75" stroke-linecap="round" x1="43.551" y1="14.976" x2="36.35" y2="14.976"/>
	<path id="connector3terminal" fill="none" d="M43.551,14.976L43.551,14.976L43.551,14.976z"/>
	<text transform="matrix(1 0 0 1 39.2625 13.926)" fill="#8C8C8C" font-family="'DroidSans'" font-size="2.5">4</text>
	<text transform="matrix(1 0 0 1 28.1433 15.677)" fill="#787878" font-family="'DroidSans'" font-size="3.5">OUT</text>
</g>
</svg>
